<?xml version="1.0" encoding="UTF-8" standalone="no"?>
<!-- Created with Inkscape (http://www.inkscape.org/) -->

<svg
   xmlns:dc="http://purl.org/dc/elements/1.1/"
   xmlns:cc="http://creativecommons.org/ns#"
   xmlns:rdf="http://www.w3.org/1999/02/22-rdf-syntax-ns#"
   xmlns:svg="http://www.w3.org/2000/svg"
   xmlns="http://www.w3.org/2000/svg"
   xmlns:sodipodi="http://sodipodi.sourceforge.net/DTD/sodipodi-0.dtd"
   xmlns:inkscape="http://www.inkscape.org/namespaces/inkscape"
   id="svg3336"
   version="1.1"
   inkscape:version="0.91 r13725"
   xml:space="preserve"
   width="243.68823"
   height="256"
   viewBox="0 0 243.68823 256"
   sodipodi:docname="ESC_logo.svg"><metadata
     id="metadata3342"><rdf:RDF><cc:Work
         rdf:about=""><dc:format>image/svg+xml</dc:format><dc:type
           rdf:resource="http://purl.org/dc/dcmitype/StillImage" /><dc:title></dc:title></cc:Work></rdf:RDF></metadata><defs
     id="defs3340"><clipPath
       clipPathUnits="userSpaceOnUse"
       id="clipPath3362"><path
         d="M 0,288 216,288 216,0 0,0 0,288 Z"
         id="path3364"
         inkscape:connector-curvature="0" /></clipPath><clipPath
       clipPathUnits="userSpaceOnUse"
       id="clipPath3370"><path
         d="m 104.845,248.649 0,0 0,0 0,0 z"
         id="path3372"
         inkscape:connector-curvature="0" /></clipPath></defs><sodipodi:namedview
     pagecolor="#ffffff"
     bordercolor="#666666"
     borderopacity="1"
     objecttolerance="10"
     gridtolerance="10"
     guidetolerance="10"
     inkscape:pageopacity="0"
     inkscape:pageshadow="2"
     inkscape:window-width="1366"
     inkscape:window-height="705"
     id="namedview3338"
     showgrid="false"
     fit-margin-top="0"
     fit-margin-left="0"
     fit-margin-right="0"
     fit-margin-bottom="0"
     inkscape:zoom="2.1446653"
     inkscape:cx="131.05338"
     inkscape:cy="126.26022"
     inkscape:window-x="-8"
     inkscape:window-y="-8"
     inkscape:window-maximized="1"
     inkscape:current-layer="g3344" /><g
     id="g3344"
     inkscape:groupmode="layer"
     inkscape:label="ESC_logo_ESC"
     transform="matrix(1.25,0,0,-1.25,3.62e-6,256)"><g
       id="g3346"
       transform="matrix(1.0850481,0,0,1.0850481,83.852522,41.926259)"><path
         d="m 0,0 0,-5.8 38.64,0 0,-32.84 -52.16,0 0,13.52 38.63,0 0,5.8 -38.63,0 0,32.84 52.16,0 L 38.64,0 0,0 Z"
         style="fill:#fff;fill-opacity:1;fill-rule:nonzero;stroke:none"
         id="path3348"
         inkscape:connector-curvature="0" /></g><g
       id="g3350"
       transform="matrix(1.0850481,0,0,1.0850481,153.02433,41.926259)"><path
         d="m 0,0 0,-25.12 38.64,0 0,-13.52 -52.16,0 0,52.16 52.16,0 L 38.64,0 0,0 Z"
         style="fill:#fff;fill-opacity:1;fill-rule:nonzero;stroke:none"
         id="path3352"
         inkscape:connector-curvature="0" /></g><g
       id="g3354"
       transform="matrix(1.0850481,0,0,1.0850481,117.79271,204.8)"><path
         d="m 0,0 -37.447,0 -25.333,-61.164 33.528,0 10.529,32.595 10.529,-32.595 33.528,0 L 0,0 Z m 25.457,-61.478 -27.139,-19.721 13.515,-41.519 38.99,0 -25.366,61.24 z m -113.727,-61.24 38.992,0 13.513,41.519 -27.144,19.721 -25.361,-61.24 z"
         style="fill:#fff;fill-opacity:1;fill-rule:nonzero;stroke:none"
         id="path3356"
         inkscape:connector-curvature="0" /></g><g
       id="g3378"
       transform="matrix(1.0850481,0,0,1.0850481,117.70406,95.55486)"><path
         d="M 0,0 -18.655,25.466 -7.701,21.726 0,0 Z m -18.833,13.907 -18.281,-14.042 18.457,25.614 -0.176,-11.572 z m -29.882,21.216 30.063,-9.637 -11.06,-3.41 -19.003,13.047 z m 29.95,21.927 0.121,-31.569 -6.661,9.466 6.54,22.103 z m 30.106,-21.706 -29.986,-9.873 6.943,9.259 23.043,0.614 z m 2.337,0.634 -24.699,0 -7.63,23.489 -7.631,-23.487 -24.697,0 19.983,-14.514 -7.636,-23.486 19.981,14.514 19.98,-14.514 -7.632,23.486 19.981,14.512 z"
         style="fill:#fff;fill-opacity:1;fill-rule:nonzero;stroke:none"
         id="path3380"
         inkscape:connector-curvature="0" /></g><g
       id="g3382"
       transform="matrix(1.0850481,0,0,1.0850481,56.596106,41.926259)"><path
         d="m 0,0 -38.63,0 0,-25.12 38.63,0 0,-13.52 -52.16,0 0,52.16 L 0,13.52 0,0 Z"
         style="fill:#fff;fill-opacity:1;fill-rule:nonzero;stroke:none"
         id="path3384"
         inkscape:connector-curvature="0" /></g><path
       d="m 20.963456,35.632437 18.868985,0 0,-14.66985 -18.868985,0 0,14.66985 z"
       style="fill:#fff;fill-opacity:1;fill-rule:nonzero;stroke:none"
       id="path3386"
       inkscape:connector-curvature="0" /><g
       id="g3358"><g
         id="g3360"
         clip-path="url(#clipPath3362)"><g
           id="g3366"><g
             id="g3368" /><g
             id="g3374"><g
               clip-path="url(#clipPath3370)"
               id="g3376"
               style="opacity:0.60000598" /></g></g></g></g></g></svg>