<svg xmlns:svg="http://www.w3.org/2000/svg" xmlns="http://www.w3.org/2000/svg" version="1.1" xml:space="preserve" width="243.68823" height="256" viewBox="0 0 243.68823 256"><defs><clipPath clipPathUnits="userSpaceOnUse"><path d="M0 288 216 288 216 0 0 0 0 288Z"/></clipPath><clipPath clipPathUnits="userSpaceOnUse"><path d="m104.845 248.649 0 0 0 0 0 0z"/></clipPath></defs><g transform="matrix(1.25,0,0,-1.25,3.62e-6,256)"><g transform="matrix(1.0850481,0,0,1.0850481,83.852522,41.926259)"><path d="m0 0 0-5.8 38.64 0 0-32.84-52.16 0 0 13.52 38.63 0 0 5.8-38.63 0 0 32.84 52.16 0L38.64 0 0 0Z" fill="#0064b1"/></g><g transform="matrix(1.0850481,0,0,1.0850481,153.02433,41.926259)"><path d="m0 0 0-25.12 38.64 0 0-13.52-52.16 0 0 52.16 52.16 0L38.64 0 0 0Z" fill="#0064b1"/></g><g transform="matrix(1.0850481,0,0,1.0850481,117.79271,204.8)"><path d="m0 0-37.447 0-25.333-61.164 33.528 0 10.529 32.595 10.529-32.595 33.528 0L0 0Zm25.457-61.478-27.139-19.721 13.515-41.519 38.99 0-25.366 61.24zm-113.727-61.24 38.992 0 13.513 41.519-27.144 19.721-25.361-61.24z" fill="#0064b1"/></g><g transform="matrix(1.0850481,0,0,1.0850481,117.70406,95.55486)"><path d="m13.678 35.978-24.699 0-7.63 23.489-7.631-23.487-24.697 0 19.983-14.514-7.636-23.486 19.981 14.514 19.98-14.514-7.632 23.486z" fill="#fff"/><path d="M0 0-18.655 25.466-7.701 21.726 0 0Zm-18.833 13.907-18.281-14.042 18.457 25.614-0.176-11.572zm-29.882 21.216 30.063-9.637-11.06-3.41-19.003 13.047zm29.95 21.927 0.121-31.569-6.661 9.466 6.54 22.103zm30.106-21.706-29.986-9.873 6.943 9.259 23.043 0.614zm2.337 0.634-24.699 0-7.63 23.489-7.631-23.487-24.697 0 19.983-14.514-7.636-23.486 19.981 14.514 19.98-14.514-7.632 23.486 19.981 14.512z" fill="#f58025"/></g><g transform="matrix(1.0850481,0,0,1.0850481,56.596106,41.926259)"><path d="m0 0-38.63 0 0-25.12 38.63 0 0-13.52-52.16 0 0 52.16L0 13.52 0 0Z" fill="#0064b1"/></g><path d="m20.963456 35.632437 18.868985 0 0-14.66985-18.868985 0 0 14.66985z" fill="#0064b1"/><g clip-path="url(#clipPath3362)"><g clip-path="url(#clipPath3370)" opacity="0.60000598"/></g></g></svg>